<?xml version="1.0" standalone="no"?>
<!DOCTYPE svg PUBLIC "-//W3C//DTD SVG 20010904//EN"
 "http://www.w3.org/TR/2001/REC-SVG-20010904/DTD/svg10.dtd">
<svg version="1.0" xmlns="http://www.w3.org/2000/svg"
 width="16.000000pt" height="16.000000pt" viewBox="0 0 16.000000 16.000000"
 preserveAspectRatio="xMidYMid meet">
<metadata>
Created by potrace 1.11, written by Peter Selinger 2001-2013
</metadata>
<g transform="translate(0.000000,16.000000) scale(0.016000,-0.016000)"
fill="#000000" stroke="none">
<path d="M698 686 c-43 -18 -87 -66 -98 -105 -42 -152 54 -264 211 -247 88 9
129 29 130 63 0 15 1 45 2 66 l2 38 -65 -3 c-61 -3 -86 -19 -40 -26 18 -3 21
-10 18 -49 -1 -36 -6 -47 -25 -56 -34 -15 -92 2 -117 36 -31 41 -31 183 0 224
45 60 146 51 174 -16 19 -47 40 -40 40 14 0 40 -3 47 -27 57 -40 15 -173 18
-205 4z"/>
<path d="M60 675 c0 -9 9 -15 23 -15 22 0 22 -1 21 -133 -2 -166 0 -157 -24
-157 -11 0 -20 -7 -20 -15 0 -12 13 -15 60 -15 47 0 60 3 60 15 0 8 -9 15 -20
15 -19 0 -20 7 -20 128 l1 127 52 -117 c50 -114 53 -118 82 -118 26 0 34 6 47
37 65 149 88 196 88 183 2 -16 2 -182 1 -217 -1 -16 -7 -23 -21 -23 -11 0 -20
-7 -20 -15 0 -12 17 -15 90 -15 73 0 90 3 90 15 0 9 -9 15 -23 15 -22 0 -22 1
-22 145 0 144 0 145 22 145 14 0 23 6 23 15 0 12 -15 15 -73 15 l-73 0 -49
-110 c-26 -60 -49 -110 -50 -110 -2 0 -25 50 -51 110 l-48 110 -73 0 c-58 0
-73 -3 -73 -15z"/>
</g>
</svg>
